<svg xmlns="http://www.w3.org/2000/svg" xmlns:xlink="http://www.w3.org/1999/xlink" width="196" height="30" viewBox="0 0 196 30">
    <defs>
        <path id="lvdup049oa" d="M0.223 0.155L119.412 0.155 119.412 29.544 0.223 29.544z"/>
        <path id="81g9n437wc" d="M0 0.098L19.677 0.098 19.677 17.718 0 17.718z"/>
        <path id="mgrnedpv6e" d="M0.133 0.098L7.03 0.098 7.03 23.523 0.133 23.523z"/>
    </defs>
    <g fill="none" fill-rule="evenodd">
        <g>
            <g>
                <g>
                    <g>
                        <g>
                            <g>
                                <g transform="translate(-54 -63) translate(0 39) translate(54 24) translate(76.023 .186)">
                                    <mask id="3acbhdyf6b" fill="#fff">
                                        <use xlink:href="#lvdup049oa"/>
                                    </mask>
                                    <path fill="#FFF" d="M111.345 23.699H99.763V6.079h11.218v3.149h-6.923v3.774h5.752l-.495 3.097h-5.257v4.45h7.287v3.15zM97.943 9.202H91.02v4.034h5.804l-.52 3.097H91.02V23.7h-4.295V6.079h11.218v3.123zM85.295 23.699H74.806V6.079h4.295v14.47h6.194v3.15zm-18.01 0h4.295V6.079h-4.294v17.62zm-3.224 0h-3.67l-5.023-7.6c-.443-.65-1.562-2.525-2.03-3.28.078 1.067.233 3.123.233 4.113l.079 6.767h-4.295V6.079h3.514l5.075 7.547c.625.937 1.614 2.577 2.108 3.384-.052-1.093-.182-3.098-.208-4.19l-.078-6.742h4.295v17.62zm-21.704 0l-.156-3.54c-.052-1.301-.052-4.607-.026-6.35-.52 1.483-1.457 3.825-1.822 4.658L38.14 23.7h-3.254l-2.16-4.998c-.234-.572-1.275-3.253-1.874-4.893 0 1.77 0 5.076-.052 6.351l-.13 3.54h-3.956l1.04-17.62h3.697l4.06 10.15c.234.625.677 1.848 1.067 3.15.39-1.276.833-2.499 1.093-3.15l4.06-10.15h3.618l1.041 17.62h-4.034zm-26.181.156c-5.492 0-7.886-3.227-7.886-8.745 0-5.44 2.655-9.266 8.224-9.266 5.466 0 7.86 3.41 7.86 8.902 0 5.413-2.654 9.109-8.198 9.109zm88.542-23.7h-89.8C6.801.155.222 6.735.222 14.85s6.579 14.694 14.694 14.694h89.801c8.115 0 14.694-6.58 14.694-14.694 0-8.116-6.579-14.695-14.694-14.695z" mask="url(#3acbhdyf6b)"/>
                                </g>
                                <path fill="#FFF" d="M92.173 9.075c-2.265 0-3.228 2.212-3.228 5.934 0 3.514.781 5.987 3.618 5.987 2.238 0 3.201-2.109 3.201-5.804 0-3.514-.78-6.117-3.591-6.117" transform="translate(-54 -63) translate(0 39) translate(54 24)"/>
                                <g transform="translate(-54 -63) translate(0 39) translate(54 24) translate(0 6.322)">
                                    <mask id="nfl9enuxvd" fill="#fff">
                                        <use xlink:href="#81g9n437wc"/>
                                    </mask>
                                    <path fill="#FFF" d="M11.426 17.718H8.173l-2.16-4.997c-.235-.572-1.276-3.253-1.875-4.893 0 1.77 0 5.075-.052 6.35l-.13 3.54H0L1.04.098h3.696l4.06 10.15c.235.625.677 1.849 1.067 3.15.39-1.275.833-2.499 1.093-3.15L15.018.099h3.617l1.042 17.62h-4.034l-.157-3.54c-.052-1.3-.052-4.606-.026-6.35-.52 1.484-1.457 3.826-1.822 4.659l-2.212 5.231z" mask="url(#nfl9enuxvd)"/>
                                </g>
                                <path fill="#FFF" d="M26.649 6.42v10.49c0 3.018 1.405 3.981 3.227 3.981 1.848 0 2.889-1.353 2.889-3.982V6.42h4.295v10.723c0 3.722-1.979 7.054-7.522 7.054-5.31 0-7.158-3.358-7.158-7.054V6.42h4.269z" transform="translate(-54 -63) translate(0 39) translate(54 24)"/>
                                <g transform="translate(-54 -63) translate(0 39) translate(54 24) translate(37.16 6.322)">
                                    <mask id="9b9uz4kgif" fill="#fff">
                                        <use xlink:href="#mgrnedpv6e"/>
                                    </mask>
                                    <path fill="#FFF" d="M7.03 16.6c0 3.903-2.238 5.517-5.153 6.923l-1.744-2.89c2.629-1.379 2.629-2.732 2.629-3.982V.098H7.03v16.501z" mask="url(#9b9uz4kgif)"/>
                                </g>
                                <path fill="#FFF" d="M47.441 6.42L58.659 6.42 58.659 9.569 51.736 9.569 51.736 13.343 57.488 13.343 56.993 16.441 51.736 16.441 51.736 20.891 59.023 20.891 59.023 24.041 47.441 24.041zM65.372 13.89h1.093c1.224 0 2.187-.729 2.187-2.316 0-1.302-.547-2.395-2.317-2.395h-.963v4.71zm-4.294-7.47c.598 0 4.268-.052 5.413-.052 4.425 0 6.663 1.744 6.663 5.05 0 2.212-1.17 3.617-2.993 4.424 2.056 1.171 3.045 3.93 4.867 8.198h-4.606c-2.239-4.866-2.812-7.47-4.607-7.47h-.443v7.47h-4.294V6.42z" transform="translate(-54 -63) translate(0 39) translate(54 24)"/>
                            </g>
                        </g>
                    </g>
                </g>
            </g>
        </g>
    </g>
</svg>
